<svg width="98" height="98" viewBox="0 0 98 98" fill="none" xmlns="http://www.w3.org/2000/svg">
<g clip-path="url(#clip0_1_17)">
<path d="M58.8 16.3333V13.0667V16.3333ZM39.2 16.3333V19.6V16.3333ZM83.9925 77.8904L81.7059 75.5645L80.3665 76.8712L80.8239 78.6809L83.9925 77.8969V77.8904ZM88.2 94.7333L87.4095 97.902C87.9564 98.0382 88.5292 98.0306 89.0722 97.8799C89.6153 97.7292 90.1102 97.4405 90.5087 97.042C90.9072 96.6435 91.1958 96.1486 91.3465 95.6056C91.4972 95.0625 91.5048 94.4897 91.3687 93.9428L88.2 94.7268V94.7333ZM62.0667 88.2L59.7539 85.8872L55.6771 89.9705L61.2761 91.3687L62.0667 88.2V88.2ZM62.23 88.0367L64.5363 90.3495C65.013 89.8746 65.3314 89.264 65.448 88.6013C65.5646 87.9386 65.4737 87.256 65.1878 86.6469C64.9018 86.0378 64.4347 85.5319 63.8504 85.1983C63.266 84.8647 62.5928 84.7197 61.9229 84.7831L62.23 88.0367V88.0367ZM3.26667 52.2667H0H3.26667ZM45.7333 0V16.3333H52.2667V0H45.7333ZM58.8 13.0667H39.2V19.6H58.8V13.0667ZM98 52.2667C98 41.8702 93.87 31.8995 86.5186 24.5481C79.1672 17.1967 69.1965 13.0667 58.8 13.0667V19.6C63.0898 19.6 67.3377 20.4449 71.301 22.0866C75.2643 23.7283 78.8654 26.1345 81.8988 29.1678C84.9322 32.2012 87.3384 35.8024 88.9801 39.7657C90.6217 43.729 91.4667 47.9768 91.4667 52.2667H98ZM86.2792 80.2228C89.9967 76.5774 92.9485 72.226 94.9612 67.4242C96.974 62.6223 98.0071 57.4667 98 52.2601H91.4667C91.4739 56.5995 90.6136 60.8965 88.9362 64.8986C87.2589 68.9007 84.7984 72.5271 81.6993 75.5645L86.2792 80.2228V80.2228ZM91.3752 93.9428L87.1547 77.0933L80.8173 78.6744L85.0248 95.5173L91.3621 93.9363L91.3752 93.9428ZM61.2761 91.3687L87.4095 97.902L88.9905 91.5647L62.8572 85.0313L61.2761 91.3687ZM59.9172 85.7304L59.7539 85.8872L64.3795 90.5063L64.5363 90.3495L59.9172 85.7304V85.7304ZM58.8 91.4667C60.0609 91.4667 61.3088 91.4013 62.5371 91.2903L61.9229 84.7831C60.8849 84.8824 59.8428 84.9325 58.8 84.9333V91.4667ZM39.2 91.4667H58.8V84.9333H39.2V91.4667ZM0 52.2667C0 62.6632 4.12999 72.6338 11.4814 79.9853C18.8328 87.3367 28.8035 91.4667 39.2 91.4667V84.9333C34.9102 84.9333 30.6623 84.0884 26.699 82.4467C22.7357 80.8051 19.1346 78.3989 16.1012 75.3655C9.97499 69.2393 6.53333 60.9304 6.53333 52.2667H0ZM39.2 13.0667C28.8035 13.0667 18.8328 17.1967 11.4814 24.5481C4.12999 31.8995 0 41.8702 0 52.2667H6.53333C6.53333 43.6029 9.97499 35.294 16.1012 29.1678C22.2274 23.0417 30.5363 19.6 39.2 19.6V13.0667ZM49 52.2667C46.4009 52.2667 43.9082 51.2342 42.0704 49.3963C40.2325 47.5585 39.2 45.0658 39.2 42.4667H32.6667C32.6667 46.7985 34.3875 50.953 37.4506 54.0161C40.5137 57.0792 44.6681 58.8 49 58.8V52.2667ZM58.8 42.4667C58.8 45.0658 57.7675 47.5585 55.9296 49.3963C54.0918 51.2342 51.5991 52.2667 49 52.2667V58.8C53.3319 58.8 57.4863 57.0792 60.5494 54.0161C63.6125 50.953 65.3333 46.7985 65.3333 42.4667H58.8ZM49 32.6667C51.5991 32.6667 54.0918 33.6992 55.9296 35.537C57.7675 37.3749 58.8 39.8675 58.8 42.4667H65.3333C65.3333 38.1348 63.6125 33.9803 60.5494 30.9173C57.4863 27.8542 53.3319 26.1333 49 26.1333V32.6667ZM49 26.1333C44.6681 26.1333 40.5137 27.8542 37.4506 30.9173C34.3875 33.9803 32.6667 38.1348 32.6667 42.4667H39.2C39.2 39.8675 40.2325 37.3749 42.0704 35.537C43.9082 33.6992 46.4009 32.6667 49 32.6667V26.1333ZM49 78.4C55.9515 78.4 62.3411 75.9827 67.3783 71.9516L63.2884 66.8556C59.3684 69.9916 54.4096 71.8667 49 71.8667V78.4V78.4ZM30.6217 71.9516C35.6524 75.9827 42.0551 78.4 49 78.4V71.8667C43.8048 71.8763 38.7627 70.108 34.7116 66.8556L30.6217 71.9516V71.9516Z" fill="black"/>
</g>
<defs>
<clipPath id="clip0_1_17">
<rect width="98" height="98" fill="white"/>
</clipPath>
</defs>
</svg>
