<svg width="325" height="98" viewBox="0 0 325 98" fill="none" xmlns="http://www.w3.org/2000/svg">
<g clip-path="url(#clip0_1_6)">
<path d="M58.8 16.3333V13.0667V16.3333ZM39.2 16.3333V19.6V16.3333ZM83.9925 77.8904L81.7059 75.5645L80.3665 76.8712L80.8239 78.6809L83.9925 77.8969V77.8904ZM88.2 94.7333L87.4095 97.902C87.9564 98.0382 88.5292 98.0306 89.0722 97.8799C89.6153 97.7292 90.1102 97.4405 90.5087 97.042C90.9072 96.6435 91.1958 96.1486 91.3465 95.6056C91.4972 95.0625 91.5048 94.4897 91.3687 93.9428L88.2 94.7268V94.7333ZM62.0667 88.2L59.7539 85.8872L55.6771 89.9705L61.2761 91.3687L62.0667 88.2V88.2ZM62.23 88.0367L64.5363 90.3495C65.013 89.8746 65.3314 89.264 65.448 88.6013C65.5646 87.9386 65.4737 87.256 65.1878 86.6469C64.9018 86.0378 64.4347 85.5319 63.8504 85.1983C63.266 84.8647 62.5928 84.7197 61.9229 84.7831L62.23 88.0367V88.0367ZM3.26667 52.2667H0H3.26667ZM45.7333 0V16.3333H52.2667V0H45.7333ZM58.8 13.0667H39.2V19.6H58.8V13.0667ZM98 52.2667C98 41.8702 93.87 31.8995 86.5186 24.5481C79.1672 17.1967 69.1965 13.0667 58.8 13.0667V19.6C63.0898 19.6 67.3377 20.4449 71.301 22.0866C75.2643 23.7283 78.8654 26.1345 81.8988 29.1678C84.9322 32.2012 87.3384 35.8024 88.9801 39.7657C90.6217 43.729 91.4667 47.9768 91.4667 52.2667H98ZM86.2792 80.2228C89.9967 76.5774 92.9485 72.226 94.9612 67.4242C96.974 62.6223 98.0071 57.4667 98 52.2601H91.4667C91.4739 56.5995 90.6136 60.8965 88.9362 64.8986C87.2589 68.9007 84.7984 72.5271 81.6993 75.5645L86.2792 80.2228V80.2228ZM91.3752 93.9428L87.1547 77.0933L80.8173 78.6744L85.0248 95.5173L91.3621 93.9363L91.3752 93.9428ZM61.2761 91.3687L87.4095 97.902L88.9905 91.5647L62.8572 85.0313L61.2761 91.3687ZM59.9172 85.7304L59.7539 85.8872L64.3795 90.5063L64.5363 90.3495L59.9172 85.7304V85.7304ZM58.8 91.4667C60.0609 91.4667 61.3088 91.4013 62.5371 91.2903L61.9229 84.7831C60.8849 84.8824 59.8428 84.9325 58.8 84.9333V91.4667ZM39.2 91.4667H58.8V84.9333H39.2V91.4667ZM0 52.2667C0 62.6632 4.12999 72.6338 11.4814 79.9853C18.8328 87.3367 28.8035 91.4667 39.2 91.4667V84.9333C34.9102 84.9333 30.6623 84.0884 26.699 82.4467C22.7357 80.8051 19.1346 78.3989 16.1012 75.3655C9.97499 69.2393 6.53333 60.9304 6.53333 52.2667H0ZM39.2 13.0667C28.8035 13.0667 18.8328 17.1967 11.4814 24.5481C4.12999 31.8995 0 41.8702 0 52.2667H6.53333C6.53333 43.6029 9.97499 35.294 16.1012 29.1678C22.2274 23.0417 30.5363 19.6 39.2 19.6V13.0667ZM49 52.2667C46.4009 52.2667 43.9082 51.2342 42.0704 49.3963C40.2325 47.5585 39.2 45.0658 39.2 42.4667H32.6667C32.6667 46.7985 34.3875 50.953 37.4506 54.0161C40.5137 57.0792 44.6681 58.8 49 58.8V52.2667ZM58.8 42.4667C58.8 45.0658 57.7675 47.5585 55.9296 49.3963C54.0918 51.2342 51.5991 52.2667 49 52.2667V58.8C53.3319 58.8 57.4863 57.0792 60.5494 54.0161C63.6125 50.953 65.3333 46.7985 65.3333 42.4667H58.8ZM49 32.6667C51.5991 32.6667 54.0918 33.6992 55.9296 35.537C57.7675 37.3749 58.8 39.8675 58.8 42.4667H65.3333C65.3333 38.1348 63.6125 33.9803 60.5494 30.9173C57.4863 27.8542 53.3319 26.1333 49 26.1333V32.6667ZM49 26.1333C44.6681 26.1333 40.5137 27.8542 37.4506 30.9173C34.3875 33.9803 32.6667 38.1348 32.6667 42.4667H39.2C39.2 39.8675 40.2325 37.3749 42.0704 35.537C43.9082 33.6992 46.4009 32.6667 49 32.6667V26.1333ZM49 78.4C55.9515 78.4 62.3411 75.9827 67.3783 71.9516L63.2884 66.8556C59.3684 69.9916 54.4096 71.8667 49 71.8667V78.4V78.4ZM30.6217 71.9516C35.6524 75.9827 42.0551 78.4 49 78.4V71.8667C43.8048 71.8763 38.7627 70.108 34.7116 66.8556L30.6217 71.9516V71.9516Z" fill="black"/>
</g>
<path d="M124.851 33.52H132.368V66H124.851V33.52ZM156.131 40.6656C159.224 40.6656 161.714 41.5936 163.601 43.4496C165.519 45.3056 166.478 48.0587 166.478 51.7088V66H159.239V52.8224C159.239 50.8427 158.806 49.3733 157.94 48.4144C157.074 47.4245 155.821 46.9296 154.182 46.9296C152.357 46.9296 150.903 47.5019 149.82 48.6464C148.738 49.76 148.196 51.4304 148.196 53.6576V66H140.958V41.0368H147.871V43.96C148.83 42.9083 150.021 42.104 151.444 41.5472C152.867 40.9595 154.429 40.6656 156.131 40.6656ZM182.829 66.3712C180.757 66.3712 178.731 66.1237 176.751 65.6288C174.771 65.1029 173.194 64.4533 172.018 63.68L174.431 58.4832C175.545 59.1947 176.89 59.7824 178.468 60.2464C180.045 60.6795 181.592 60.896 183.108 60.896C186.17 60.896 187.701 60.1381 187.701 58.6224C187.701 57.9109 187.284 57.4005 186.449 57.0912C185.613 56.7819 184.33 56.5189 182.597 56.3024C180.556 55.9931 178.87 55.6373 177.54 55.2352C176.21 54.8331 175.05 54.1216 174.06 53.1008C173.101 52.08 172.621 50.6261 172.621 48.7392C172.621 47.1616 173.07 45.7696 173.967 44.5632C174.895 43.3259 176.225 42.3669 177.957 41.6864C179.721 41.0059 181.793 40.6656 184.175 40.6656C185.938 40.6656 187.686 40.8667 189.418 41.2688C191.181 41.64 192.635 42.1659 193.78 42.8464L191.367 47.9968C189.171 46.7595 186.773 46.1408 184.175 46.1408C182.628 46.1408 181.468 46.3573 180.695 46.7904C179.922 47.2235 179.535 47.7803 179.535 48.4608C179.535 49.2341 179.953 49.7755 180.788 50.0848C181.623 50.3941 182.953 50.688 184.778 50.9664C186.82 51.3067 188.49 51.6779 189.789 52.08C191.089 52.4512 192.218 53.1472 193.177 54.168C194.136 55.1888 194.615 56.6117 194.615 58.4368C194.615 59.9835 194.151 61.36 193.223 62.5664C192.295 63.7728 190.934 64.7163 189.14 65.3968C187.377 66.0464 185.273 66.3712 182.829 66.3712ZM216.574 64.7936C215.862 65.3195 214.981 65.7216 213.929 66C212.908 66.2475 211.826 66.3712 210.681 66.3712C207.711 66.3712 205.407 65.6133 203.767 64.0976C202.159 62.5819 201.355 60.3547 201.355 57.416V47.1616H197.503V41.5936H201.355V35.5152H208.593V41.5936H214.811V47.1616H208.593V57.3232C208.593 58.3749 208.856 59.1947 209.382 59.7824C209.939 60.3392 210.712 60.6176 211.702 60.6176C212.846 60.6176 213.821 60.3083 214.625 59.6896L216.574 64.7936ZM232.098 40.6656C235.965 40.6656 238.934 41.5936 241.007 43.4496C243.079 45.2747 244.116 48.0432 244.116 51.7552V66H237.341V62.8912C235.98 65.2112 233.444 66.3712 229.732 66.3712C227.814 66.3712 226.143 66.0464 224.72 65.3968C223.328 64.7472 222.261 63.8501 221.519 62.7056C220.776 61.5611 220.405 60.2619 220.405 58.808C220.405 56.488 221.271 54.6629 223.004 53.3328C224.767 52.0027 227.473 51.3376 231.124 51.3376H236.877C236.877 49.76 236.398 48.5536 235.439 47.7184C234.48 46.8523 233.041 46.4192 231.124 46.4192C229.793 46.4192 228.479 46.6357 227.18 47.0688C225.911 47.4709 224.829 48.0277 223.932 48.7392L221.333 43.6816C222.694 42.7227 224.318 41.9803 226.205 41.4544C228.123 40.9285 230.087 40.6656 232.098 40.6656ZM231.541 61.4992C232.778 61.4992 233.877 61.2208 234.836 60.664C235.794 60.0763 236.475 59.2256 236.877 58.112V55.56H231.912C228.943 55.56 227.458 56.5344 227.458 58.4832C227.458 59.4112 227.814 60.1536 228.525 60.7104C229.268 61.2363 230.273 61.4992 231.541 61.4992ZM266.814 40.6656C269.134 40.6656 271.237 41.2069 273.124 42.2896C275.042 43.3413 276.542 44.8416 277.625 46.7904C278.708 48.7083 279.249 50.9509 279.249 53.5184C279.249 56.0859 278.708 58.344 277.625 60.2928C276.542 62.2107 275.042 63.7109 273.124 64.7936C271.237 65.8453 269.134 66.3712 266.814 66.3712C263.628 66.3712 261.122 65.3659 259.297 63.3552V75.0016H252.059V41.0368H258.972V43.9136C260.766 41.7483 263.38 40.6656 266.814 40.6656ZM265.561 60.432C267.417 60.432 268.933 59.8133 270.108 58.576C271.315 57.3077 271.918 55.6219 271.918 53.5184C271.918 51.4149 271.315 49.7445 270.108 48.5072C268.933 47.2389 267.417 46.6048 265.561 46.6048C263.705 46.6048 262.174 47.2389 260.967 48.5072C259.792 49.7445 259.204 51.4149 259.204 53.5184C259.204 55.6219 259.792 57.3077 260.967 58.576C262.174 59.8133 263.705 60.432 265.561 60.432ZM285.487 41.0368H292.725V66H285.487V41.0368ZM289.106 37.5568C287.776 37.5568 286.693 37.1701 285.858 36.3968C285.023 35.6235 284.605 34.6645 284.605 33.52C284.605 32.3755 285.023 31.4165 285.858 30.6432C286.693 29.8699 287.776 29.4832 289.106 29.4832C290.436 29.4832 291.519 29.8544 292.354 30.5968C293.189 31.3392 293.607 32.2672 293.607 33.3808C293.607 34.5872 293.189 35.5925 292.354 36.3968C291.519 37.1701 290.436 37.5568 289.106 37.5568ZM312.899 66.3712C310.239 66.3712 307.841 65.8299 305.707 64.7472C303.603 63.6336 301.948 62.1024 300.742 60.1536C299.567 58.2048 298.979 55.9931 298.979 53.5184C298.979 51.0437 299.567 48.832 300.742 46.8832C301.948 44.9344 303.603 43.4187 305.707 42.336C307.841 41.2224 310.239 40.6656 312.899 40.6656C315.528 40.6656 317.817 41.2224 319.766 42.336C321.746 43.4187 323.184 44.9808 324.081 47.0224L318.467 50.0384C317.168 47.7493 315.296 46.6048 312.852 46.6048C310.965 46.6048 309.403 47.2235 308.166 48.4608C306.929 49.6981 306.31 51.384 306.31 53.5184C306.31 55.6528 306.929 57.3387 308.166 58.576C309.403 59.8133 310.965 60.432 312.852 60.432C315.327 60.432 317.199 59.2875 318.467 56.9984L324.081 60.0608C323.184 62.0405 321.746 63.5872 319.766 64.7008C317.817 65.8144 315.528 66.3712 312.899 66.3712Z" fill="black"/>
<defs>
<clipPath id="clip0_1_6">
<rect width="98" height="98" fill="white"/>
</clipPath>
</defs>
</svg>
